Coordinates
version=1
nRows=18
nColumns=22
inDegrees=yes

Units are S.I. units (second, meters, Newtons, ...)
If the header above contains a line with 'inDegrees', this indicates whether rotational values are in degrees (yes) or radians (no).

endheader
time	pelvis_tilt	pelvis_list	pelvis_rotation	pelvis_tx	pelvis_ty	pelvis_tz	hip_flexion_r	hip_adduction_r	hip_rotation_r	knee_angle_r	ankle_angle_r	subtalar_angle_r	hip_flexion_l	hip_adduction_l	hip_rotation_l	knee_angle_l	ankle_angle_l	subtalar_angle_l	lumbar_extension	lumbar_bending	lumbar_rotation
      1.53000000	      1.23752789	      4.53143756	     79.13707084	      0.34625359	      0.92024437	     -0.07691506	     23.40845198	     -6.79425711	     -1.34290120	    -41.61767069	     -1.31603076	      7.89401352	     -3.94824206	      6.98217962	      2.57662331	    -19.48865079	     12.86388496	    -14.26163436	     -9.62968415	     -2.10445244	     -3.00211046
      1.54000000	      1.18807148	      4.73946127	     80.19097951	      0.34855517	      0.91973916	     -0.08520700	     23.08804023	     -6.95825869	     -1.88878244	    -38.30276416	     -1.39669007	      7.88093039	     -4.80936195	      6.88117928	      3.67934903	    -19.45057863	     13.41302106	    -13.68532802	     -9.79832702	     -2.13980240	     -3.57968880
      1.55000000	      1.08810958	      4.92297800	     81.21461298	      0.35085010	      0.91904253	     -0.09355463	     22.72679416	     -7.16024180	     -2.52486559	    -34.88895635	     -1.49105562	      7.95710450	     -5.63042748	      6.80262025	      4.69207023	    -19.43045209	     13.91930945	    -13.21488036	     -9.91832816	     -2.22008884	     -4.14395896
      1.56000000	      0.92455130	      5.04999371	     82.21118476	      0.35313080	      0.91809702	     -0.10192057	     22.38061177	     -7.39938734	     -3.23019118	    -31.41587021	     -1.57576954	      8.12260782	     -6.36921949	      6.75614305	      5.58194813	    -19.43454064	     14.39693120	    -12.86923106	     -9.96102152	     -2.35525223	     -4.70159508
      1.57000000	      0.71037547	      5.12143373	     83.17147171	      0.35543004	      0.91692808	     -0.11031463	     22.05351532	     -7.64797529	     -3.96525605	    -27.90875806	     -1.63736322	      8.38023929	     -7.04264570	      6.72931930	      6.31938666	    -19.43905903	     14.84973547	    -12.61360922	     -9.92980227	     -2.53752527	     -5.25413612
      1.58000000	      0.45969430	      5.12593622	     84.10946364	      0.35777128	      0.91553954	     -0.11869996	     21.76266622	     -7.88287711	     -4.69034387	    -24.39888169	     -1.65907073	      8.74749830	     -7.62450338	      6.70714463	      6.91552975	    -19.47453517	     15.28181590	    -12.43330745	     -9.82340394	     -2.75944343	     -5.80195631
      1.59000000	      0.17754832	      5.03927655	     85.03854446	      0.36015071	      0.91391452	     -0.12706016	     21.54615324	     -8.09870174	     -5.35639307	    -20.92961630	     -1.66929083	      9.19286851	     -8.07990995	      6.68288486	      7.35801268	    -19.55888213	     15.72089088	    -12.30750615	     -9.62032660	     -3.01511201	     -6.38271946
      1.60000000	     -0.10103449	      4.92530200	     85.93050283	      0.36264025	      0.91218936	     -0.13543030	     21.32515201	     -8.25498697	     -5.86070085	    -17.51329417	     -1.65319723	      9.81025081	     -8.51058508	      6.63073661	      7.67328955	    -19.64027875	     16.12654959	    -12.17498187	     -9.39567763	     -3.28613055	     -6.91765176
      1.61000000	     -0.37788031	      4.77758616	     86.78997731	      0.36519488	      0.91036198	     -0.14381910	     21.12337002	     -8.37301065	     -6.15910386	    -14.21157098	     -1.62767483	     10.63750367	     -8.90642344	      6.55890547	      7.88427867	    -19.72674722	     16.50895807	    -12.01593329	     -9.14147766	     -3.56539961	     -7.42449173
      1.62000000	     -0.66187713	      4.58472600	     87.62539666	      0.36778819	      0.90842771	     -0.15222783	     20.97373517	     -8.48691651	     -6.24346671	    -11.10160068	     -1.64691841	     11.56853236	     -9.25109405	      6.48073865	      8.03394286	    -19.82538782	     16.87800608	    -11.83433625	     -8.84558856	     -3.86175321	     -7.92261630
      1.63000000	     -0.96675971	      4.39066986	     88.41569476	      0.37042175	      0.90646160	     -0.16067123	     20.85934054	     -8.63160003	     -6.07664564	     -8.28331832	     -1.66100022	     12.59054571	     -9.60412256	      6.41844527	      8.13544358	    -19.91031477	     17.21165229	    -11.61617625	     -8.55933495	     -4.19025769	     -8.38918623
      1.64000000	     -1.28453497	      4.21344966	     89.16189695	      0.37309004	      0.90451578	     -0.16918305	     20.78769098	     -8.81922614	     -5.74795301	     -5.86490161	     -1.65957907	     13.58194084	     -9.98663160	      6.36660241	      8.22595953	    -19.98668157	     17.49690438	    -11.38144310	     -8.30177850	     -4.54275599	     -8.82935227
      1.65000000	     -1.60951574	      4.07945223	     89.85587355	      0.37576932	      0.90265769	     -0.17775574	     20.76735824	     -9.05363266	     -5.30157123	     -3.96778061	     -1.62626257	     14.46943166	    -10.42531519	      6.32424700	      8.33388272	    -20.05282103	     17.72456789	    -11.14426608	     -8.10891855	     -4.90331570	     -9.22120826
      1.66000000	     -1.92210891	      3.99610482	     90.48864748	      0.37849158	      0.90094099	     -0.18641687	     20.81333079	     -9.30667591	     -4.80813563	     -2.67763595	     -1.55276973	     15.17894449	    -10.93237980	      6.27161767	      8.49470507	    -20.10197721	     17.84562321	    -10.92458237	     -7.98393365	     -5.24984543	     -9.54988036
      1.67000000	     -2.21542692	      3.98259904	     91.05141240	      0.38127043	      0.89939655	     -0.19515642	     20.93036847	     -9.55963169	     -4.28600810	     -2.06462470	     -1.44607769	     15.72615315	    -11.51121243	      6.20072548	      8.67428624	    -20.16188066	     17.91145706	    -10.72159442	     -7.95062233	     -5.57089379	     -9.83531038
      1.68000000	     -2.48509632	      4.02139693	     91.54590175	      0.38413169	      0.89802261	     -0.20396873	     21.13259816	     -9.79119964	     -3.74902880	     -2.11873199	     -1.35410323	     16.03557352	    -12.14039688	      6.10913215	      8.91089237	    -20.23208973	     17.90490108	    -10.56538021	     -7.99063333	     -5.86351528	    -10.06414222
      1.69000000	     -2.70376075	      4.11592019	     91.98493257	      0.38706850	      0.89683145	     -0.21291142	     21.36648447	     -9.96418134	     -3.18311157	     -2.73910799	     -1.30455629	     16.32762554	    -12.80737304	      5.96349357	      9.16103117	    -20.34625175	     17.78716429	    -10.40199506	     -8.09529773	     -6.09089054	    -10.26132848
      1.70000000	     -2.88173294	      4.23998324	     92.37818324	      0.39008225	      0.89577602	     -0.22199329	     21.62346213	    -10.07671000	     -2.56645978	     -3.81200466	     -1.33329576	     16.47544303	    -13.47960689	      5.78003824	      9.44674174	    -20.51714739	     17.61283258	    -10.29028318	     -8.23072832	     -6.26557992	    -10.41538230
